<?xml version="1.0" encoding="utf-8"?>
<!-- Generator: Adobe Illustrator 23.0.6, SVG Export Plug-In . SVG Version: 6.00 Build 0)  -->
<svg version="1.1" id="Calque_1" xmlns="http://www.w3.org/2000/svg" xmlns:xlink="http://www.w3.org/1999/xlink" x="0px" y="0px"
	 viewBox="0 0 500 500" style="enable-background:new 0 0 500 500;" xml:space="preserve">
<style type="text/css">
	.st0{fill:#818181;}
	.st1{fill:#595959;}
	.st2{fill:#F9F6F9;}
	.st3{fill:#DFDDE2;}
	.st4{fill:#B3E59F;}
	.st5{fill:#95D6A4;}
	.st6{fill:#9DC6FB;}
	.st7{fill:#80B4FB;}
	.st8{fill:#78C2A4;}
	.st9{fill:none;}
	.st10{font-family:'Montserrat-Medium';}
	.st11{font-size:86.46px;}
</style>
<g>
	<g>
		<path class="st0" d="M230.89,119.76H113.53v-15.65c0-8.65,7.01-15.65,15.65-15.65h86.07c8.65,0,15.65,7.01,15.65,15.65V119.76
			L230.89,119.76z"/>
		<g>
			<path class="st1" d="M157.38,15.53h-15.87l-14.08,31.86c-0.95,2.14-0.8,4.6,0.39,6.63l20.32,34.45H165l-22.77-38.62L157.38,15.53
				z"/>
			<path class="st1" d="M370.74,334.92c0,18.36-14.89,33.25-33.25,33.25s-33.25-14.89-33.25-33.25H370.74z"/>
			<path class="st1" d="M304.24,334.92c0,18.36-14.89,33.25-33.25,33.25s-33.25-14.89-33.25-33.25H304.24z"/>
			<path class="st1" d="M167.32,334.92c0,18.36-14.89,33.25-33.25,33.25s-33.25-14.89-33.25-33.25H167.32z"/>
			<path class="st1" d="M100.82,334.92c0,18.36-14.89,33.25-33.25,33.25s-33.25-14.89-33.25-33.25H100.82z"/>
		</g>
		<path class="st2" d="M440.6,334.92H24.43c-5.35,0-9.68-4.33-9.68-9.68V129.44c0-5.35,4.33-9.68,9.68-9.68h269.76
			c41.5,0,81.3,16.48,110.65,45.83l74.88,74.88c10.38,10.38,16.2,24.44,16.2,39.12C495.92,310.15,471.16,334.92,440.6,334.92z"/>
		<path class="st3" d="M479.72,240.48l-74.88-74.88c-29.35-29.35-69.15-45.83-110.65-45.83h-38.14c41.5,0,81.3,16.48,110.65,45.83
			l74.88,74.88c10.38,10.38,16.2,24.44,16.2,39.12c0,30.55-24.77,55.33-55.33,55.33h38.15c30.55,0,55.33-24.77,55.33-55.33
			C495.92,264.92,490.1,250.85,479.72,240.48z"/>
		<path class="st4" d="M440.6,334.92c30.55,0,55.33-24.77,55.33-55.33c0-2.27-0.16-4.54-0.43-6.78H310.17
			c-10.38,0-20.33-4.13-27.66-11.46l-12.78-12.78c-7.34-7.34-17.28-11.46-27.66-11.46H14.75v88.11c0,5.35,4.33,9.68,9.68,9.68H440.6
			z"/>
		<path class="st5" d="M495.49,272.82h-38.14c0.27,2.24,0.43,4.5,0.43,6.78c0,30.55-24.77,55.33-55.33,55.33h38.15
			c30.55,0,55.33-24.77,55.33-55.33C495.92,277.32,495.77,275.05,495.49,272.82z"/>
		<path class="st6" d="M327.71,232.23h143.77l-66.64-66.64c-4.13-4.13-8.47-8-12.99-11.61H294.4c-3.2,0-5.81,2.6-5.81,5.81v33.31
			C288.59,214.72,306.1,232.23,327.71,232.23L327.71,232.23z"/>
		<path class="st7" d="M366.69,165.6l66.64,66.64h38.15l-66.64-66.64c-4.13-4.13-8.47-8-12.99-11.61h-38.14
			C358.23,157.6,362.57,161.46,366.69,165.6L366.69,165.6z"/>
		<path class="st6" d="M221.2,153.99h-78.43c-5.35,0-9.68,4.33-9.68,9.68v33.45c0,5.35,4.33,9.68,9.68,9.68h78.43
			c5.35,0,9.68-4.33,9.68-9.68v-33.45C230.89,158.32,226.55,153.99,221.2,153.99L221.2,153.99z"/>
		<path class="st6" d="M92.12,153.99H14.75v52.81h77.36c5.35,0,9.68-4.33,9.68-9.68v-33.45C101.8,158.32,97.46,153.99,92.12,153.99
			L92.12,153.99z"/>
		<g>
			<path class="st8" d="M227.95,308.93c-4.01,0-7.26-3.25-7.26-7.26v-19.56c0-4.01,3.25-7.26,7.26-7.26c4.01,0,7.26,3.25,7.26,7.26
				v19.56C235.22,305.68,231.97,308.93,227.95,308.93z"/>
		</g>
		<g>
			<path class="st8" d="M196.66,308.93c-4.01,0-7.26-3.25-7.26-7.26v-19.56c0-4.01,3.25-7.26,7.26-7.26c4.01,0,7.26,3.25,7.26,7.26
				v19.56C203.92,305.68,200.67,308.93,196.66,308.93z"/>
		</g>
		<g>
			<path class="st8" d="M165.36,308.93c-4.01,0-7.26-3.25-7.26-7.26v-19.56c0-4.01,3.25-7.26,7.26-7.26c4.01,0,7.26,3.25,7.26,7.26
				v19.56C172.63,305.68,169.38,308.93,165.36,308.93z"/>
		</g>
		<g>
			<path class="st0" d="M248.5,35.1c-2.67,0-5.23-1.48-6.5-4.01l-7.77-15.54H116.06l-7.77,15.54c-1.79,3.59-6.16,5.04-9.75,3.25
				c-3.59-1.79-5.04-6.16-3.25-9.75l9.78-19.56c1.23-2.46,3.74-4.01,6.49-4.01H238.7c2.75,0,5.26,1.55,6.49,4.01l9.78,19.56
				c1.79,3.59,0.34,7.95-3.25,9.75C250.7,34.84,249.59,35.1,248.5,35.1z"/>
		</g>
	</g>
	<rect x="23.79" y="393.8" class="st9" width="463.58" height="108.2"/>
	<text transform="matrix(1 0 0 1 23.7979 457.959)" class="st8 st10 st11">M</text>
	<text transform="matrix(1 0 0 1 106.3672 457.959)" class="st6 st10 st11">on</text>
	<text transform="matrix(1 0 0 1 220.1465 457.959)" class="st8 st10 st11">T</text>
	<text transform="matrix(1 0 0 1 270.8945 457.959)" class="st6 st10 st11">rain</text>
</g>
</svg>
